# WaveFront *.obj file (generated by Autodesk ATF)

mtllib False_Bottom_2.mtl

g Solid1

v 0.058096 0.000000 0.000000
v 0.058096 0.000000 6.500000
v 0.058096 0.125000 0.000000
v 0.058096 0.125000 6.500000
v 0.183096 -0.500000 0.000000
v 0.183096 -0.500000 0.125000
v 0.183096 0.000000 0.000000
v 0.183096 0.000000 0.125000
v 2.683096 -0.500000 0.000000
v 2.683096 -0.500000 0.125000
v 2.683096 0.000000 0.000000
v 2.683096 0.000000 0.125000
v 2.808096 0.000000 0.000000
v 2.808096 0.000000 6.500000
v 2.808096 0.125000 0.000000
v 2.808096 0.125000 6.500000
vt 0.000000 0.000000 0.000000
vt 0.317500 0.000000 0.000000
vt 0.317500 1.270000 0.000000
vt 0.000000 1.270000 0.000000
vt 0.000000 0.000000 0.000000
vt 0.317500 0.000000 0.000000
vt 0.317500 1.270000 0.000000
vt 0.000000 1.270000 0.000000
vt 0.000000 0.000000 0.000000
vt 6.350000 0.000000 0.000000
vt 6.350000 1.270000 0.000000
vt 0.000000 1.270000 0.000000
vt -0.158750 3.175000 0.000000
vt -0.158750 -3.175000 0.000000
vt 0.158750 -3.175000 0.000000
vt 0.158750 3.175000 0.000000
vt 8.255000 -3.175000 0.000000
vt 7.937500 -3.175000 0.000000
vt 7.937500 3.175000 0.000000
vt 8.255000 3.175000 0.000000
vt 8.255000 3.492500 0.000000
vt -8.255000 3.492500 0.000000
vt -8.255000 -3.492500 0.000000
vt 8.255000 -3.492500 0.000000
vt 0.000000 0.000000 0.000000
vt 16.510000 0.000000 0.000000
vt 16.510000 0.317500 0.000000
vt 0.000000 0.317500 0.000000
vt 0.000000 0.000000 0.000000
vt 6.985000 0.000000 0.000000
vt 6.985000 0.317500 0.000000
vt 0.000000 0.317500 0.000000
vt 0.000000 0.000000 0.000000
vt 16.510000 0.000000 0.000000
vt 16.510000 0.317500 0.000000
vt 0.000000 0.317500 0.000000
vt 0.000000 0.000000 0.000000
vt 0.317500 0.000000 0.000000
vt 0.317500 -1.270000 0.000000
vt 6.667500 -1.270000 0.000000
vt 6.667500 0.000000 0.000000
vt 6.985000 0.000000 0.000000
vt 6.985000 0.317500 0.000000
vt 0.000000 0.317500 0.000000
vt -8.255000 3.492500 0.000000
vt -8.255000 -3.492500 0.000000
vt 8.255000 -3.492500 0.000000
vt 8.255000 3.492500 0.000000
vn 2.540000 0.000000 0.000000
vn 2.540000 0.000000 0.000000
vn 2.540000 0.000000 0.000000
vn 2.540000 0.000000 0.000000
vn -2.540000 0.000000 0.000000
vn -2.540000 0.000000 0.000000
vn -2.540000 0.000000 0.000000
vn -2.540000 0.000000 0.000000
vn 0.000000 0.000000 2.540000
vn 0.000000 0.000000 2.540000
vn 0.000000 0.000000 2.540000
vn 0.000000 0.000000 2.540000
vn 0.000000 -2.540000 0.000000
vn 0.000000 -2.540000 0.000000
vn 0.000000 -2.540000 0.000000
vn 0.000000 -2.540000 0.000000
vn 0.000000 -2.540000 0.000000
vn 0.000000 -2.540000 0.000000
vn 0.000000 -2.540000 0.000000
vn 0.000000 -2.540000 0.000000
vn 0.000000 -2.540000 0.000000
vn 0.000000 -2.540000 0.000000
vn 0.000000 -2.540000 0.000000
vn 0.000000 -2.540000 0.000000
vn 2.540000 0.000000 0.000000
vn 2.540000 0.000000 0.000000
vn 2.540000 0.000000 0.000000
vn 2.540000 0.000000 0.000000
vn 0.000000 0.000000 2.540000
vn 0.000000 0.000000 2.540000
vn 0.000000 0.000000 2.540000
vn 0.000000 0.000000 2.540000
vn -2.540000 0.000000 0.000000
vn -2.540000 0.000000 0.000000
vn -2.540000 0.000000 0.000000
vn -2.540000 0.000000 0.000000
vn 0.000000 0.000000 -2.540000
vn 0.000000 0.000000 -2.540000
vn 0.000000 0.000000 -2.540000
vn 0.000000 0.000000 -2.540000
vn 0.000000 0.000000 -2.540000
vn 0.000000 0.000000 -2.540000
vn 0.000000 0.000000 -2.540000
vn 0.000000 0.000000 -2.540000
vn 0.000000 2.540000 0.000000
vn 0.000000 2.540000 0.000000
vn 0.000000 2.540000 0.000000
vn 0.000000 2.540000 0.000000
usemtl 191,191,191
f 11/1/1 12/2/2 9/4/4
f 9/4/4 12/2/2 10/3/3
f 8/5/5 7/6/6 6/8/8
f 6/8/8 7/6/6 5/7/7
f 12/9/9 8/10/10 10/12/12
f 10/12/12 8/10/10 6/11/11
f 6/14/14 5/15/15 10/13/13
f 10/13/13 5/15/15 9/16/16
f 7/17/17 8/18/18 1/24/24
f 1/24/24 8/18/18 2/23/23
f 2/23/23 8/18/18 12/19/19
f 2/23/23 12/19/19 14/22/22
f 14/22/22 12/19/19 13/21/21
f 13/21/21 12/19/19 11/20/20
f 14/25/25 13/26/26 16/28/28
f 16/28/28 13/26/26 15/27/27
f 2/29/29 14/30/30 4/32/32
f 4/32/32 14/30/30 16/31/31
f 1/33/33 2/34/34 3/36/36
f 3/36/36 2/34/34 4/35/35
f 13/37/37 11/38/38 15/44/44
f 15/44/44 11/38/38 7/41/41
f 15/44/44 7/41/41 3/43/43
f 3/43/43 7/41/41 1/42/42
f 9/39/39 5/40/40 11/38/38
f 11/38/38 5/40/40 7/41/41
f 3/46/46 4/47/47 15/45/45
f 15/45/45 4/47/47 16/48/48

# 16 vertices
# 48 texture params
# 48 normals
# 28 facets

# 1 groups
